{
	"patcher" : 	{
		"fileversion" : 1,
		"appversion" : 		{
			"major" : 7,
			"minor" : 3,
			"revision" : 4,
			"architecture" : "x86",
			"modernui" : 1
		}
,
		"rect" : [ 49.0, 83.0, 841.0, 783.0 ],
		"bgcolor" : [ 0.862745, 0.870588, 0.878431, 1.0 ],
		"bglocked" : 0,
		"openinpresentation" : 0,
		"default_fontsize" : 12.0,
		"default_fontface" : 0,
		"default_fontname" : "Arial",
		"gridonopen" : 1,
		"gridsize" : [ 15.0, 15.0 ],
		"gridsnaponopen" : 1,
		"objectsnaponopen" : 1,
		"statusbarvisible" : 2,
		"toolbarvisible" : 1,
		"lefttoolbarpinned" : 0,
		"toptoolbarpinned" : 0,
		"righttoolbarpinned" : 0,
		"bottomtoolbarpinned" : 0,
		"toolbars_unpinned_last_save" : 0,
		"tallnewobj" : 0,
		"boxanimatetime" : 200,
		"enablehscroll" : 1,
		"enablevscroll" : 1,
		"devicewidth" : 0.0,
		"description" : "",
		"digest" : "",
		"tags" : "",
		"style" : "",
		"subpatcher_template" : "",
		"boxes" : [ 			{
				"box" : 				{
					"id" : "obj-2",
					"maxclass" : "newobj",
					"numinlets" : 1,
					"numoutlets" : 0,
					"patcher" : 					{
						"fileversion" : 1,
						"appversion" : 						{
							"major" : 7,
							"minor" : 3,
							"revision" : 4,
							"architecture" : "x86",
							"modernui" : 1
						}
,
						"rect" : [ 404.0, 79.0, 886.0, 783.0 ],
						"bglocked" : 0,
						"openinpresentation" : 0,
						"default_fontsize" : 12.0,
						"default_fontface" : 0,
						"default_fontname" : "Arial",
						"gridonopen" : 1,
						"gridsize" : [ 15.0, 15.0 ],
						"gridsnaponopen" : 1,
						"objectsnaponopen" : 1,
						"statusbarvisible" : 2,
						"toolbarvisible" : 1,
						"lefttoolbarpinned" : 0,
						"toptoolbarpinned" : 0,
						"righttoolbarpinned" : 0,
						"bottomtoolbarpinned" : 0,
						"toolbars_unpinned_last_save" : 0,
						"tallnewobj" : 0,
						"boxanimatetime" : 200,
						"enablehscroll" : 1,
						"enablevscroll" : 1,
						"devicewidth" : 0.0,
						"description" : "",
						"digest" : "",
						"tags" : "",
						"style" : "",
						"subpatcher_template" : "",
						"visible" : 1,
						"boxes" : [ 							{
								"box" : 								{
									"id" : "obj-72",
									"maxclass" : "button",
									"numinlets" : 1,
									"numoutlets" : 1,
									"outlettype" : [ "bang" ],
									"patching_rect" : [ 174.098389, 101.0, 24.0, 24.0 ],
									"style" : ""
								}

							}
, 							{
								"box" : 								{
									"id" : "obj-71",
									"linecount" : 7,
									"maxclass" : "comment",
									"numinlets" : 1,
									"numoutlets" : 0,
									"patching_rect" : [ 224.173462, 20.0, 332.0, 100.0 ],
									"style" : "",
									"text" : "TO DO:\n1. Change transition time - change the property of the number box to have time we want\n2. Set number of speakers in the random object\n3. Choose type of fade to use\n4. If we change or add sounds, change the number on the counter"
								}

							}
, 							{
								"box" : 								{
									"id" : "obj-66",
									"maxclass" : "number",
									"numinlets" : 1,
									"numoutlets" : 2,
									"outlettype" : [ "", "bang" ],
									"parameter_enable" : 0,
									"patching_rect" : [ 365.905334, 1008.5, 50.0, 22.0 ],
									"style" : ""
								}

							}
, 							{
								"box" : 								{
									"id" : "obj-67",
									"maxclass" : "newobj",
									"numinlets" : 2,
									"numoutlets" : 1,
									"outlettype" : [ "int" ],
									"patching_rect" : [ 365.905334, 970.5, 29.5, 22.0 ],
									"style" : "",
									"text" : "+ 1"
								}

							}
, 							{
								"box" : 								{
									"id" : "obj-68",
									"maxclass" : "message",
									"numinlets" : 2,
									"numoutlets" : 1,
									"outlettype" : [ "" ],
									"patching_rect" : [ 365.905334, 1042.5, 43.0, 22.0 ],
									"style" : "",
									"text" : "set $1"
								}

							}
, 							{
								"box" : 								{
									"id" : "obj-69",
									"maxclass" : "button",
									"numinlets" : 1,
									"numoutlets" : 1,
									"outlettype" : [ "bang" ],
									"patching_rect" : [ 365.905334, 888.5, 30.0, 30.0 ],
									"style" : ""
								}

							}
, 							{
								"box" : 								{
									"id" : "obj-70",
									"maxclass" : "newobj",
									"numinlets" : 2,
									"numoutlets" : 1,
									"outlettype" : [ "int" ],
									"patching_rect" : [ 365.905334, 931.0, 61.0, 22.0 ],
									"style" : "",
									"text" : "random 2"
								}

							}
, 							{
								"box" : 								{
									"id" : "obj-65",
									"maxclass" : "number",
									"numinlets" : 1,
									"numoutlets" : 2,
									"outlettype" : [ "", "bang" ],
									"parameter_enable" : 0,
									"patching_rect" : [ 62.731812, 1008.5, 50.0, 22.0 ],
									"style" : ""
								}

							}
, 							{
								"box" : 								{
									"id" : "obj-57",
									"maxclass" : "newobj",
									"numinlets" : 2,
									"numoutlets" : 1,
									"outlettype" : [ "int" ],
									"patching_rect" : [ 62.731812, 970.5, 29.5, 22.0 ],
									"style" : "",
									"text" : "+ 1"
								}

							}
, 							{
								"box" : 								{
									"id" : "obj-50",
									"maxclass" : "message",
									"numinlets" : 2,
									"numoutlets" : 1,
									"outlettype" : [ "" ],
									"patching_rect" : [ 62.731812, 1042.5, 43.0, 22.0 ],
									"style" : "",
									"text" : "set $1"
								}

							}
, 							{
								"box" : 								{
									"id" : "obj-47",
									"maxclass" : "button",
									"numinlets" : 1,
									"numoutlets" : 1,
									"outlettype" : [ "bang" ],
									"patching_rect" : [ 62.731812, 888.5, 30.0, 30.0 ],
									"style" : ""
								}

							}
, 							{
								"box" : 								{
									"id" : "obj-46",
									"maxclass" : "newobj",
									"numinlets" : 2,
									"numoutlets" : 1,
									"outlettype" : [ "int" ],
									"patching_rect" : [ 62.731812, 931.0, 61.0, 22.0 ],
									"style" : "",
									"text" : "random 2"
								}

							}
, 							{
								"box" : 								{
									"allowdrag" : 0,
									"id" : "obj-44",
									"items" : [ "Equal", "Power", "Fade", "[default]", ",", "Linear", "Fade", ",", "Square", "Root", "Fade" ],
									"maxclass" : "umenu",
									"numinlets" : 1,
									"numoutlets" : 3,
									"outlettype" : [ "int", "", "" ],
									"parameter_enable" : 0,
									"patching_rect" : [ 311.405334, 814.0, 159.0, 22.0 ],
									"style" : ""
								}

							}
, 							{
								"box" : 								{
									"fontname" : "Arial",
									"fontsize" : 12.0,
									"id" : "obj-45",
									"maxclass" : "message",
									"numinlets" : 2,
									"numoutlets" : 1,
									"outlettype" : [ "" ],
									"patching_rect" : [ 311.405334, 839.0, 58.0, 22.0 ],
									"style" : "",
									"text" : "shape $1"
								}

							}
, 							{
								"box" : 								{
									"bgcolor" : [ 0.221674, 0.25681, 0.29304, 1.0 ],
									"id" : "obj-36",
									"maxclass" : "newobj",
									"numinlets" : 2,
									"numoutlets" : 2,
									"outlettype" : [ "bang", "" ],
									"patching_rect" : [ 365.905334, 516.5, 36.0, 22.0 ],
									"style" : "",
									"text" : "sel 1"
								}

							}
, 							{
								"box" : 								{
									"bgcolor" : [ 0.221674, 0.25681, 0.29304, 1.0 ],
									"id" : "obj-37",
									"maxclass" : "newobj",
									"numinlets" : 5,
									"numoutlets" : 4,
									"outlettype" : [ "int", "", "", "int" ],
									"patching_rect" : [ 365.905334, 550.5, 71.0, 22.0 ],
									"style" : "",
									"text" : "counter 1 3"
								}

							}
, 							{
								"box" : 								{
									"bgcolor" : [ 0.221674, 0.25681, 0.29304, 1.0 ],
									"id" : "obj-24",
									"maxclass" : "newobj",
									"numinlets" : 2,
									"numoutlets" : 2,
									"outlettype" : [ "bang", "" ],
									"patching_rect" : [ 62.731812, 516.5, 36.0, 22.0 ],
									"style" : "",
									"text" : "sel 1"
								}

							}
, 							{
								"box" : 								{
									"bgcolor" : [ 0.221674, 0.25681, 0.29304, 1.0 ],
									"id" : "obj-38",
									"maxclass" : "newobj",
									"numinlets" : 5,
									"numoutlets" : 4,
									"outlettype" : [ "int", "", "", "int" ],
									"patching_rect" : [ 62.731812, 550.5, 71.0, 22.0 ],
									"style" : "",
									"text" : "counter 1 4"
								}

							}
, 							{
								"box" : 								{
									"bgcolor" : [ 0.221674, 0.25681, 0.29304, 1.0 ],
									"id" : "obj-19",
									"maxclass" : "number",
									"numinlets" : 1,
									"numoutlets" : 2,
									"outlettype" : [ "", "bang" ],
									"parameter_enable" : 0,
									"patching_rect" : [ 62.731812, 585.5, 50.0, 22.0 ],
									"style" : ""
								}

							}
, 							{
								"box" : 								{
									"bgcolor" : [ 0.221674, 0.25681, 0.29304, 1.0 ],
									"id" : "obj-17",
									"maxclass" : "number",
									"numinlets" : 1,
									"numoutlets" : 2,
									"outlettype" : [ "", "bang" ],
									"parameter_enable" : 0,
									"patching_rect" : [ 365.905334, 585.5, 50.0, 22.0 ],
									"style" : ""
								}

							}
, 							{
								"box" : 								{
									"bgcolor" : [ 0.14, 0.14, 0.14, 1.0 ],
									"clipheight" : 22.0,
									"data" : 									{
										"clips" : [ 											{
												"filename" : "/Users/reneeesses/Documents/Cornell Tech/Artfoo/max/sound_image_kate/Sounds/thunder/01-mellow_thunder.aif",
												"filekind" : "audiofile",
												"loop" : 0,
												"content_state" : 												{
													"pitchshift" : [ 1.0 ],
													"slurtime" : [ 0.0 ],
													"followglobaltempo" : [ 0 ],
													"originallength" : [ 0.0, "ticks" ],
													"pitchcorrection" : [ 0 ],
													"originaltempo" : [ 120.0 ],
													"mode" : [ "basic" ],
													"formantcorrection" : [ 0 ],
													"basictuning" : [ 440 ],
													"quality" : [ "basic" ],
													"play" : [ 0 ],
													"originallengthms" : [ 0.0 ],
													"speed" : [ 1.0 ],
													"formant" : [ 1.0 ],
													"timestretch" : [ 0 ]
												}

											}
, 											{
												"filename" : "/Users/reneeesses/Documents/Cornell Tech/Artfoo/max/sound_image_kate/Sounds/thunder/03-thundering.aif",
												"filekind" : "audiofile",
												"loop" : 0,
												"content_state" : 												{
													"pitchshift" : [ 1.0 ],
													"slurtime" : [ 0.0 ],
													"followglobaltempo" : [ 0 ],
													"originallength" : [ 0.0, "ticks" ],
													"pitchcorrection" : [ 0 ],
													"originaltempo" : [ 120.0 ],
													"mode" : [ "basic" ],
													"formantcorrection" : [ 0 ],
													"basictuning" : [ 440 ],
													"quality" : [ "basic" ],
													"play" : [ 0 ],
													"originallengthms" : [ 0.0 ],
													"speed" : [ 1.0 ],
													"formant" : [ 1.0 ],
													"timestretch" : [ 0 ]
												}

											}
, 											{
												"filename" : "/Users/reneeesses/Documents/Cornell Tech/Artfoo/max/sound_image_kate/Sounds/thunder/05.5-thunder_old.wav",
												"filekind" : "audiofile",
												"loop" : 0,
												"content_state" : 												{
													"pitchshift" : [ 1.0 ],
													"slurtime" : [ 0.0 ],
													"followglobaltempo" : [ 0 ],
													"originallength" : [ 0.0, "ticks" ],
													"pitchcorrection" : [ 0 ],
													"originaltempo" : [ 120.0 ],
													"mode" : [ "basic" ],
													"formantcorrection" : [ 0 ],
													"basictuning" : [ 440 ],
													"quality" : [ "basic" ],
													"play" : [ 0 ],
													"originallengthms" : [ 0.0 ],
													"speed" : [ 1.0 ],
													"formant" : [ 1.0 ],
													"timestretch" : [ 0 ]
												}

											}
, 											{
												"filename" : "/Users/reneeesses/Documents/Cornell Tech/Artfoo/max/sound_image_kate/Sounds/thunder/08-quick_thunder.aif",
												"filekind" : "audiofile",
												"loop" : 0,
												"content_state" : 												{
													"pitchshift" : [ 1.0 ],
													"slurtime" : [ 0.0 ],
													"followglobaltempo" : [ 0 ],
													"originallength" : [ 0.0, "ticks" ],
													"pitchcorrection" : [ 0 ],
													"originaltempo" : [ 120.0 ],
													"mode" : [ "basic" ],
													"formantcorrection" : [ 0 ],
													"basictuning" : [ 440 ],
													"quality" : [ "basic" ],
													"play" : [ 0 ],
													"originallengthms" : [ 0.0 ],
													"speed" : [ 1.0 ],
													"formant" : [ 1.0 ],
													"timestretch" : [ 0 ]
												}

											}
 ]
									}
,
									"id" : "obj-10",
									"maxclass" : "playlist~",
									"numinlets" : 1,
									"numoutlets" : 5,
									"outlettype" : [ "signal", "signal", "signal", "", "dictionary" ],
									"patching_rect" : [ 62.731812, 644.5, 150.0, 92.0 ],
									"style" : ""
								}

							}
, 							{
								"box" : 								{
									"bgcolor" : [ 0.14, 0.14, 0.14, 1.0 ],
									"clipheight" : 29.666666,
									"data" : 									{
										"clips" : [ 											{
												"filename" : "/Users/reneeesses/Documents/Cornell Tech/Artfoo/max/sound_image_kate/Sounds/thunder/02-cracking_thunder.aif",
												"filekind" : "audiofile",
												"loop" : 0,
												"content_state" : 												{
													"pitchshift" : [ 1.0 ],
													"slurtime" : [ 0.0 ],
													"followglobaltempo" : [ 0 ],
													"originallength" : [ 0.0, "ticks" ],
													"pitchcorrection" : [ 0 ],
													"originaltempo" : [ 120.0 ],
													"mode" : [ "basic" ],
													"formantcorrection" : [ 0 ],
													"basictuning" : [ 440 ],
													"quality" : [ "basic" ],
													"play" : [ 0 ],
													"originallengthms" : [ 0.0 ],
													"speed" : [ 1.0 ],
													"formant" : [ 1.0 ],
													"timestretch" : [ 0 ]
												}

											}
, 											{
												"filename" : "/Users/reneeesses/Documents/Cornell Tech/Artfoo/max/sound_image_kate/Sounds/thunder/04-lightning_thunder.aif",
												"filekind" : "audiofile",
												"loop" : 0,
												"content_state" : 												{
													"pitchshift" : [ 1.0 ],
													"slurtime" : [ 0.0 ],
													"followglobaltempo" : [ 0 ],
													"originallength" : [ 0.0, "ticks" ],
													"pitchcorrection" : [ 0 ],
													"originaltempo" : [ 120.0 ],
													"mode" : [ "basic" ],
													"formantcorrection" : [ 0 ],
													"basictuning" : [ 440 ],
													"quality" : [ "basic" ],
													"play" : [ 0 ],
													"originallengthms" : [ 0.0 ],
													"speed" : [ 1.0 ],
													"formant" : [ 1.0 ],
													"timestretch" : [ 0 ]
												}

											}
, 											{
												"filename" : "/Users/reneeesses/Documents/Cornell Tech/Artfoo/max/sound_image_kate/Sounds/thunder/06-lightning.aif",
												"filekind" : "audiofile",
												"loop" : 0,
												"content_state" : 												{
													"pitchshift" : [ 1.0 ],
													"slurtime" : [ 0.0 ],
													"followglobaltempo" : [ 0 ],
													"originallength" : [ 0.0, "ticks" ],
													"pitchcorrection" : [ 0 ],
													"originaltempo" : [ 120.0 ],
													"mode" : [ "basic" ],
													"formantcorrection" : [ 0 ],
													"basictuning" : [ 440 ],
													"quality" : [ "basic" ],
													"play" : [ 0 ],
													"originallengthms" : [ 0.0 ],
													"speed" : [ 1.0 ],
													"formant" : [ 1.0 ],
													"timestretch" : [ 0 ]
												}

											}
 ]
									}
,
									"id" : "obj-8",
									"maxclass" : "playlist~",
									"numinlets" : 1,
									"numoutlets" : 5,
									"outlettype" : [ "signal", "signal", "signal", "", "dictionary" ],
									"patching_rect" : [ 365.905334, 623.5, 150.0, 92.0 ],
									"style" : ""
								}

							}
, 							{
								"box" : 								{
									"bgcolor" : [ 0.133674, 0.354866, 0.236742, 1.0 ],
									"id" : "obj-13",
									"maxclass" : "number",
									"numinlets" : 1,
									"numoutlets" : 2,
									"outlettype" : [ "", "bang" ],
									"parameter_enable" : 0,
									"patching_rect" : [ 365.173462, 264.5, 50.0, 22.0 ],
									"style" : ""
								}

							}
, 							{
								"box" : 								{
									"bgcolor" : [ 0.133674, 0.354866, 0.236742, 1.0 ],
									"id" : "obj-9",
									"maxclass" : "newobj",
									"numinlets" : 1,
									"numoutlets" : 1,
									"outlettype" : [ "" ],
									"patching_rect" : [ 62.731812, 405.5, 100.0, 22.0 ],
									"style" : "",
									"text" : "if $i1 == 0 then 1"
								}

							}
, 							{
								"box" : 								{
									"bgcolor" : [ 0.133674, 0.354866, 0.236742, 1.0 ],
									"id" : "obj-6",
									"maxclass" : "newobj",
									"numinlets" : 1,
									"numoutlets" : 1,
									"outlettype" : [ "" ],
									"patching_rect" : [ 179.731812, 405.5, 100.0, 22.0 ],
									"style" : "",
									"text" : "if $i1 == 1 then 0"
								}

							}
, 							{
								"box" : 								{
									"bgcolor" : [ 0.133674, 0.354866, 0.236742, 1.0 ],
									"id" : "obj-3",
									"maxclass" : "newobj",
									"numinlets" : 1,
									"numoutlets" : 1,
									"outlettype" : [ "" ],
									"patching_rect" : [ 436.173462, 405.5, 100.0, 22.0 ],
									"style" : "",
									"text" : "if $i1 == 0 then 0"
								}

							}
, 							{
								"box" : 								{
									"bgcolor" : [ 0.133674, 0.354866, 0.236742, 1.0 ],
									"id" : "obj-1",
									"maxclass" : "newobj",
									"numinlets" : 1,
									"numoutlets" : 1,
									"outlettype" : [ "" ],
									"patching_rect" : [ 306.398499, 405.5, 100.0, 22.0 ],
									"style" : "",
									"text" : "if $i1 == 1 then 1"
								}

							}
, 							{
								"box" : 								{
									"bgcolor" : [ 0.133674, 0.354866, 0.236742, 1.0 ],
									"id" : "obj-39",
									"maxclass" : "number",
									"numinlets" : 1,
									"numoutlets" : 2,
									"outlettype" : [ "", "bang" ],
									"parameter_enable" : 0,
									"patching_rect" : [ 447.666626, 264.5, 50.0, 22.0 ],
									"style" : ""
								}

							}
, 							{
								"box" : 								{
									"bgcolor" : [ 0.133674, 0.354866, 0.236742, 1.0 ],
									"id" : "obj-23",
									"maxclass" : "newobj",
									"numinlets" : 1,
									"numoutlets" : 1,
									"outlettype" : [ "" ],
									"patching_rect" : [ 504.557617, 182.5, 100.0, 22.0 ],
									"style" : "",
									"text" : "if $i1 > 99 then 1"
								}

							}
, 							{
								"box" : 								{
									"bgcolor" : [ 0.133674, 0.354866, 0.236742, 1.0 ],
									"id" : "obj-40",
									"maxclass" : "newobj",
									"numinlets" : 1,
									"numoutlets" : 1,
									"outlettype" : [ "" ],
									"patching_rect" : [ 388.173462, 182.5, 93.0, 22.0 ],
									"style" : "",
									"text" : "if $i1 < 1 then 0"
								}

							}
, 							{
								"box" : 								{
									"bgcolor" : [ 0.240323, 0.247547, 0.573641, 1.0 ],
									"id" : "obj-18",
									"maxclass" : "toggle",
									"numinlets" : 1,
									"numoutlets" : 1,
									"outlettype" : [ "int" ],
									"parameter_enable" : 0,
									"patching_rect" : [ 88.333313, 81.0, 24.0, 24.0 ],
									"style" : "",
									"uncheckedcolor" : [ 0.163647, 0.174699, 0.17409, 1.0 ]
								}

							}
, 							{
								"box" : 								{
									"bgcolor" : [ 0.337303, 0.352808, 0.54972, 1.0 ],
									"id" : "obj-11",
									"maxclass" : "slider",
									"mult" : 100.0,
									"numinlets" : 1,
									"numoutlets" : 1,
									"orientation" : 1,
									"outlettype" : [ "" ],
									"parameter_enable" : 0,
									"patching_rect" : [ 88.333313, 167.764709, 42.0, 18.0 ],
									"size" : 2.0,
									"style" : "sliderCyan"
								}

							}
, 							{
								"box" : 								{
									"comment" : "",
									"id" : "obj-2",
									"index" : 1,
									"maxclass" : "inlet",
									"numinlets" : 0,
									"numoutlets" : 1,
									"outlettype" : [ "" ],
									"patching_rect" : [ 88.333313, 20.0, 30.0, 30.0 ],
									"style" : "",
									"tricolor" : [ 0.702269, 0.811747, 0.303388, 1.0 ]
								}

							}
, 							{
								"box" : 								{
									"bgcolor" : [ 0.337303, 0.352808, 0.54972, 1.0 ],
									"id" : "obj-58",
									"maxclass" : "comment",
									"numinlets" : 1,
									"numoutlets" : 0,
									"patching_rect" : [ 174.098389, 144.882355, 90.0, 20.0 ],
									"style" : "",
									"text" : "Transition Time"
								}

							}
, 							{
								"box" : 								{
									"bgcolor" : [ 0.337303, 0.352808, 0.54972, 1.0 ],
									"id" : "obj-59",
									"maxclass" : "comment",
									"numinlets" : 1,
									"numoutlets" : 0,
									"patching_rect" : [ 235.782593, 167.764709, 26.0, 20.0 ],
									"style" : "",
									"text" : "ms"
								}

							}
, 							{
								"box" : 								{
									"bgcolor" : [ 0.337303, 0.352808, 0.54972, 1.0 ],
									"id" : "obj-60",
									"maxclass" : "number",
									"minimum" : 750,
									"numinlets" : 1,
									"numoutlets" : 2,
									"outlettype" : [ "", "bang" ],
									"parameter_enable" : 0,
									"patching_rect" : [ 174.098389, 167.764709, 53.0, 22.0 ],
									"style" : "numberGold-1",
									"triscale" : 0.9
								}

							}
, 							{
								"box" : 								{
									"bgcolor" : [ 0.337303, 0.352808, 0.54972, 1.0 ],
									"cantchange" : 1,
									"format" : 6,
									"id" : "obj-61",
									"maxclass" : "flonum",
									"maximum" : 1.0,
									"minimum" : 0.0,
									"numinlets" : 1,
									"numoutlets" : 2,
									"outlettype" : [ "", "bang" ],
									"parameter_enable" : 0,
									"patching_rect" : [ 88.333313, 333.941162, 48.0, 22.0 ],
									"style" : "",
									"triscale" : 0.9
								}

							}
, 							{
								"box" : 								{
									"bgcolor" : [ 0.337303, 0.352808, 0.54972, 1.0 ],
									"id" : "obj-41",
									"maxclass" : "newobj",
									"numinlets" : 2,
									"numoutlets" : 1,
									"outlettype" : [ "" ],
									"patching_rect" : [ 88.333313, 198.647034, 57.0, 22.0 ],
									"style" : "",
									"text" : "pack"
								}

							}
, 							{
								"box" : 								{
									"bgcolor" : [ 0.337303, 0.352808, 0.54972, 1.0 ],
									"id" : "obj-62",
									"maxclass" : "newobj",
									"numinlets" : 3,
									"numoutlets" : 2,
									"outlettype" : [ "", "" ],
									"patching_rect" : [ 88.333313, 232.470581, 54.0, 22.0 ],
									"style" : "",
									"text" : "line 0 50"
								}

							}
, 							{
								"box" : 								{
									"bgcolor" : [ 0.337303, 0.352808, 0.54972, 1.0 ],
									"id" : "obj-63",
									"maxclass" : "newobj",
									"numinlets" : 2,
									"numoutlets" : 1,
									"outlettype" : [ "float" ],
									"patching_rect" : [ 88.333313, 298.647095, 41.0, 22.0 ],
									"style" : "",
									"text" : "* 0.01"
								}

							}
, 							{
								"box" : 								{
									"bgcolor" : [ 0.337303, 0.352808, 0.54972, 1.0 ],
									"id" : "obj-64",
									"maxclass" : "slider",
									"numinlets" : 1,
									"numoutlets" : 1,
									"orientation" : 1,
									"outlettype" : [ "" ],
									"parameter_enable" : 0,
									"patching_rect" : [ 88.333313, 267.764709, 159.124054, 20.0 ],
									"size" : 101.0,
									"style" : "sliderCyan"
								}

							}
, 							{
								"box" : 								{
									"bgcolor" : [ 0.989256, 0.417462, 0.031845, 1.0 ],
									"id" : "obj-51",
									"maxclass" : "toggle",
									"numinlets" : 1,
									"numoutlets" : 1,
									"outlettype" : [ "int" ],
									"parameter_enable" : 0,
									"patching_rect" : [ 365.905334, 480.5, 24.0, 24.0 ],
									"style" : "",
									"uncheckedcolor" : [ 0.572549, 0.27451, 0.027451, 1.0 ]
								}

							}
, 							{
								"box" : 								{
									"bgcolor" : [ 0.113725, 0.580392, 0.737255, 1.0 ],
									"id" : "obj-42",
									"maxclass" : "newobj",
									"numinlets" : 5,
									"numoutlets" : 3,
									"outlettype" : [ "signal", "signal", "" ],
									"patching_rect" : [ 211.0, 831.5, 63.0, 22.0 ],
									"style" : "",
									"text" : "j.xfade~ 2"
								}

							}
, 							{
								"box" : 								{
									"bgcolor" : [ 0.989256, 0.417462, 0.031845, 1.0 ],
									"id" : "obj-43",
									"maxclass" : "toggle",
									"numinlets" : 1,
									"numoutlets" : 1,
									"outlettype" : [ "int" ],
									"parameter_enable" : 0,
									"patching_rect" : [ 62.731812, 480.5, 24.0, 24.0 ],
									"style" : "",
									"uncheckedcolor" : [ 0.572549, 0.27451, 0.027451, 1.0 ]
								}

							}
, 							{
								"box" : 								{
									"fontname" : "Arial",
									"fontsize" : 12.0,
									"id" : "obj-25",
									"maxclass" : "newobj",
									"numinlets" : 2,
									"numoutlets" : 0,
									"patching_rect" : [ 211.0, 1041.5, 37.0, 22.0 ],
									"style" : "",
									"text" : "dac~"
								}

							}
 ],
						"lines" : [ 							{
								"patchline" : 								{
									"destination" : [ "obj-51", 0 ],
									"midpoints" : [ 315.898499, 467.0, 375.405334, 467.0 ],
									"source" : [ "obj-1", 0 ]
								}

							}
, 							{
								"patchline" : 								{
									"destination" : [ "obj-42", 0 ],
									"midpoints" : [ 104.981812, 805.0, 220.5, 805.0 ],
									"source" : [ "obj-10", 1 ]
								}

							}
, 							{
								"patchline" : 								{
									"destination" : [ "obj-42", 0 ],
									"midpoints" : [ 72.231812, 813.0, 220.5, 813.0 ],
									"source" : [ "obj-10", 0 ]
								}

							}
, 							{
								"patchline" : 								{
									"destination" : [ "obj-41", 0 ],
									"midpoints" : [ 97.833313, 188.0, 97.833313, 188.0 ],
									"source" : [ "obj-11", 0 ]
								}

							}
, 							{
								"patchline" : 								{
									"destination" : [ "obj-1", 0 ],
									"midpoints" : [ 374.673462, 392.0, 315.898499, 392.0 ],
									"order" : 0,
									"source" : [ "obj-13", 0 ]
								}

							}
, 							{
								"patchline" : 								{
									"destination" : [ "obj-9", 0 ],
									"midpoints" : [ 374.673462, 392.0, 72.231812, 392.0 ],
									"order" : 1,
									"source" : [ "obj-13", 0 ]
								}

							}
, 							{
								"patchline" : 								{
									"destination" : [ "obj-8", 0 ],
									"midpoints" : [ 375.405334, 608.0, 375.405334, 608.0 ],
									"source" : [ "obj-17", 0 ]
								}

							}
, 							{
								"patchline" : 								{
									"destination" : [ "obj-11", 0 ],
									"midpoints" : [ 97.833313, 131.0, 97.0, 131.0, 97.0, 164.0, 97.833313, 164.0 ],
									"order" : 2,
									"source" : [ "obj-18", 0 ]
								}

							}
, 							{
								"patchline" : 								{
									"destination" : [ "obj-13", 0 ],
									"midpoints" : [ 97.833313, 131.0, 374.673462, 131.0 ],
									"order" : 0,
									"source" : [ "obj-18", 0 ]
								}

							}
, 							{
								"patchline" : 								{
									"destination" : [ "obj-72", 0 ],
									"order" : 1,
									"source" : [ "obj-18", 0 ]
								}

							}
, 							{
								"patchline" : 								{
									"destination" : [ "obj-10", 0 ],
									"midpoints" : [ 72.231812, 608.0, 72.231812, 608.0 ],
									"source" : [ "obj-19", 0 ]
								}

							}
, 							{
								"patchline" : 								{
									"destination" : [ "obj-18", 0 ],
									"midpoints" : [ 97.833313, 53.0, 97.833313, 53.0 ],
									"source" : [ "obj-2", 0 ]
								}

							}
, 							{
								"patchline" : 								{
									"destination" : [ "obj-39", 0 ],
									"midpoints" : [ 514.057617, 251.0, 457.166626, 251.0 ],
									"source" : [ "obj-23", 0 ]
								}

							}
, 							{
								"patchline" : 								{
									"destination" : [ "obj-38", 0 ],
									"midpoints" : [ 72.231812, 539.0, 72.231812, 539.0 ],
									"order" : 1,
									"source" : [ "obj-24", 0 ]
								}

							}
, 							{
								"patchline" : 								{
									"destination" : [ "obj-47", 0 ],
									"order" : 0,
									"source" : [ "obj-24", 0 ]
								}

							}
, 							{
								"patchline" : 								{
									"destination" : [ "obj-51", 0 ],
									"midpoints" : [ 445.673462, 467.0, 375.405334, 467.0 ],
									"source" : [ "obj-3", 0 ]
								}

							}
, 							{
								"patchline" : 								{
									"destination" : [ "obj-37", 0 ],
									"midpoints" : [ 375.405334, 539.0, 375.405334, 539.0 ],
									"order" : 1,
									"source" : [ "obj-36", 0 ]
								}

							}
, 							{
								"patchline" : 								{
									"destination" : [ "obj-69", 0 ],
									"order" : 0,
									"source" : [ "obj-36", 0 ]
								}

							}
, 							{
								"patchline" : 								{
									"destination" : [ "obj-17", 0 ],
									"midpoints" : [ 375.405334, 575.0, 375.405334, 575.0 ],
									"source" : [ "obj-37", 0 ]
								}

							}
, 							{
								"patchline" : 								{
									"destination" : [ "obj-19", 0 ],
									"midpoints" : [ 72.231812, 575.0, 72.231812, 575.0 ],
									"source" : [ "obj-38", 0 ]
								}

							}
, 							{
								"patchline" : 								{
									"destination" : [ "obj-3", 0 ],
									"midpoints" : [ 457.166626, 392.0, 445.673462, 392.0 ],
									"order" : 0,
									"source" : [ "obj-39", 0 ]
								}

							}
, 							{
								"patchline" : 								{
									"destination" : [ "obj-6", 0 ],
									"midpoints" : [ 457.166626, 392.0, 189.231812, 392.0 ],
									"order" : 1,
									"source" : [ "obj-39", 0 ]
								}

							}
, 							{
								"patchline" : 								{
									"destination" : [ "obj-39", 0 ],
									"midpoints" : [ 397.673462, 251.0, 457.166626, 251.0 ],
									"source" : [ "obj-40", 0 ]
								}

							}
, 							{
								"patchline" : 								{
									"destination" : [ "obj-62", 0 ],
									"midpoints" : [ 97.833313, 221.0, 97.833313, 221.0 ],
									"source" : [ "obj-41", 0 ]
								}

							}
, 							{
								"patchline" : 								{
									"destination" : [ "obj-25", 1 ],
									"source" : [ "obj-42", 1 ]
								}

							}
, 							{
								"patchline" : 								{
									"destination" : [ "obj-25", 0 ],
									"source" : [ "obj-42", 0 ]
								}

							}
, 							{
								"patchline" : 								{
									"destination" : [ "obj-24", 0 ],
									"midpoints" : [ 72.231812, 506.0, 72.231812, 506.0 ],
									"source" : [ "obj-43", 0 ]
								}

							}
, 							{
								"patchline" : 								{
									"destination" : [ "obj-45", 0 ],
									"source" : [ "obj-44", 0 ]
								}

							}
, 							{
								"patchline" : 								{
									"destination" : [ "obj-42", 0 ],
									"source" : [ "obj-45", 0 ]
								}

							}
, 							{
								"patchline" : 								{
									"destination" : [ "obj-57", 0 ],
									"source" : [ "obj-46", 0 ]
								}

							}
, 							{
								"patchline" : 								{
									"destination" : [ "obj-46", 0 ],
									"source" : [ "obj-47", 0 ]
								}

							}
, 							{
								"patchline" : 								{
									"destination" : [ "obj-25", 0 ],
									"source" : [ "obj-50", 0 ]
								}

							}
, 							{
								"patchline" : 								{
									"destination" : [ "obj-36", 0 ],
									"midpoints" : [ 375.405334, 506.0, 375.405334, 506.0 ],
									"source" : [ "obj-51", 0 ]
								}

							}
, 							{
								"patchline" : 								{
									"destination" : [ "obj-65", 0 ],
									"source" : [ "obj-57", 0 ]
								}

							}
, 							{
								"patchline" : 								{
									"destination" : [ "obj-43", 0 ],
									"midpoints" : [ 189.231812, 467.0, 72.231812, 467.0 ],
									"source" : [ "obj-6", 0 ]
								}

							}
, 							{
								"patchline" : 								{
									"destination" : [ "obj-41", 1 ],
									"midpoints" : [ 183.598389, 191.0, 135.833313, 191.0 ],
									"source" : [ "obj-60", 0 ]
								}

							}
, 							{
								"patchline" : 								{
									"destination" : [ "obj-42", 4 ],
									"midpoints" : [ 97.833313, 383.0, 47.0, 383.0, 47.0, 779.0, 264.5, 779.0 ],
									"source" : [ "obj-61", 0 ]
								}

							}
, 							{
								"patchline" : 								{
									"destination" : [ "obj-64", 0 ],
									"midpoints" : [ 97.833313, 257.0, 97.833313, 257.0 ],
									"source" : [ "obj-62", 0 ]
								}

							}
, 							{
								"patchline" : 								{
									"destination" : [ "obj-61", 0 ],
									"midpoints" : [ 97.833313, 323.0, 97.833313, 323.0 ],
									"source" : [ "obj-63", 0 ]
								}

							}
, 							{
								"patchline" : 								{
									"destination" : [ "obj-23", 0 ],
									"midpoints" : [ 97.833313, 290.0, 146.0, 290.0, 146.0, 329.0, 434.0, 329.0, 434.0, 215.0, 491.0, 215.0, 491.0, 176.0, 514.057617, 176.0 ],
									"order" : 0,
									"source" : [ "obj-64", 0 ]
								}

							}
, 							{
								"patchline" : 								{
									"destination" : [ "obj-40", 0 ],
									"midpoints" : [ 97.833313, 290.0, 146.0, 290.0, 146.0, 329.0, 350.0, 329.0, 350.0, 176.0, 397.673462, 176.0 ],
									"order" : 1,
									"source" : [ "obj-64", 0 ]
								}

							}
, 							{
								"patchline" : 								{
									"destination" : [ "obj-63", 0 ],
									"midpoints" : [ 97.833313, 290.0, 97.833313, 290.0 ],
									"order" : 2,
									"source" : [ "obj-64", 0 ]
								}

							}
, 							{
								"patchline" : 								{
									"destination" : [ "obj-50", 0 ],
									"source" : [ "obj-65", 0 ]
								}

							}
, 							{
								"patchline" : 								{
									"destination" : [ "obj-68", 0 ],
									"source" : [ "obj-66", 0 ]
								}

							}
, 							{
								"patchline" : 								{
									"destination" : [ "obj-66", 0 ],
									"source" : [ "obj-67", 0 ]
								}

							}
, 							{
								"patchline" : 								{
									"destination" : [ "obj-25", 1 ],
									"source" : [ "obj-68", 0 ]
								}

							}
, 							{
								"patchline" : 								{
									"destination" : [ "obj-70", 0 ],
									"source" : [ "obj-69", 0 ]
								}

							}
, 							{
								"patchline" : 								{
									"destination" : [ "obj-67", 0 ],
									"source" : [ "obj-70", 0 ]
								}

							}
, 							{
								"patchline" : 								{
									"destination" : [ "obj-60", 0 ],
									"source" : [ "obj-72", 0 ]
								}

							}
, 							{
								"patchline" : 								{
									"destination" : [ "obj-42", 3 ],
									"source" : [ "obj-8", 1 ]
								}

							}
, 							{
								"patchline" : 								{
									"destination" : [ "obj-42", 3 ],
									"source" : [ "obj-8", 0 ]
								}

							}
, 							{
								"patchline" : 								{
									"destination" : [ "obj-43", 0 ],
									"midpoints" : [ 72.231812, 428.0, 72.231812, 428.0 ],
									"source" : [ "obj-9", 0 ]
								}

							}
 ],
						"styles" : [ 							{
								"name" : "AudioStatus_Menu",
								"default" : 								{
									"bgfillcolor" : 									{
										"type" : "color",
										"color" : [ 0.294118, 0.313726, 0.337255, 1 ],
										"color1" : [ 0.454902, 0.462745, 0.482353, 0.0 ],
										"color2" : [ 0.290196, 0.309804, 0.301961, 1.0 ],
										"angle" : 270.0,
										"proportion" : 0.39,
										"autogradient" : 0
									}

								}
,
								"parentstyle" : "",
								"multi" : 0
							}
, 							{
								"name" : "buttonBlue",
								"default" : 								{
									"bgcolor" : [ 0.317647, 0.654902, 0.976471, 1.0 ]
								}
,
								"parentstyle" : "",
								"multi" : 0
							}
, 							{
								"name" : "buttonPurple",
								"default" : 								{
									"bgcolor" : [ 0.372549, 0.196078, 0.486275, 1.0 ]
								}
,
								"parentstyle" : "",
								"multi" : 0
							}
, 							{
								"name" : "newobjBlue-1",
								"default" : 								{
									"accentcolor" : [ 0.317647, 0.654902, 0.976471, 1.0 ]
								}
,
								"parentstyle" : "",
								"multi" : 0
							}
, 							{
								"name" : "newobjBronze",
								"default" : 								{
									"accentcolor" : [ 0.654902, 0.572549, 0.376471, 1.0 ]
								}
,
								"parentstyle" : "newobjYellow",
								"multi" : 0
							}
, 							{
								"name" : "newobjCyan-1",
								"default" : 								{
									"accentcolor" : [ 0.029546, 0.773327, 0.821113, 1.0 ]
								}
,
								"parentstyle" : "",
								"multi" : 0
							}
, 							{
								"name" : "newobjGold-1",
								"default" : 								{
									"accentcolor" : [ 0.764706, 0.592157, 0.101961, 1.0 ]
								}
,
								"parentstyle" : "",
								"multi" : 0
							}
, 							{
								"name" : "newobjGreen-1",
								"default" : 								{
									"accentcolor" : [ 0.0, 0.533333, 0.168627, 1.0 ]
								}
,
								"parentstyle" : "",
								"multi" : 0
							}
, 							{
								"name" : "newobjMagenta-1",
								"default" : 								{
									"accentcolor" : [ 0.840663, 0.060168, 0.769195, 1.0 ]
								}
,
								"parentstyle" : "",
								"multi" : 0
							}
, 							{
								"name" : "newobjYellow-1",
								"default" : 								{
									"accentcolor" : [ 0.82517, 0.78181, 0.059545, 1.0 ],
									"fontsize" : [ 12.059008 ]
								}
,
								"parentstyle" : "",
								"multi" : 0
							}
, 							{
								"name" : "numberGold-1",
								"default" : 								{
									"accentcolor" : [ 0.764706, 0.592157, 0.101961, 1.0 ]
								}
,
								"parentstyle" : "",
								"multi" : 0
							}
 ]
					}
,
					"patching_rect" : [ 268.833313, 255.5, 90.0, 22.0 ],
					"saved_object_attributes" : 					{
						"description" : "",
						"digest" : "",
						"globalpatchername" : "",
						"style" : "",
						"tags" : ""
					}
,
					"style" : "",
					"text" : "patcher xfade2"
				}

			}
, 			{
				"box" : 				{
					"id" : "obj-3",
					"maxclass" : "newobj",
					"numinlets" : 1,
					"numoutlets" : 0,
					"patching_rect" : [ 330.166687, 124.333313, 34.0, 22.0 ],
					"style" : "",
					"text" : "print"
				}

			}
, 			{
				"box" : 				{
					"fontname" : "Arial",
					"fontsize" : 12.0,
					"format" : 6,
					"id" : "obj-4",
					"maxclass" : "flonum",
					"maximum" : 1.0,
					"minimum" : 0.0,
					"numinlets" : 1,
					"numoutlets" : 2,
					"outlettype" : [ "", "bang" ],
					"parameter_enable" : 0,
					"patching_rect" : [ 268.833313, 185.333313, 50.0, 22.0 ],
					"style" : ""
				}

			}
, 			{
				"box" : 				{
					"fontface" : 0,
					"fontname" : "Arial",
					"fontsize" : 12.0,
					"id" : "obj-5",
					"maxclass" : "newobj",
					"numinlets" : 1,
					"numoutlets" : 1,
					"outlettype" : [ "int" ],
					"patching_rect" : [ 268.833313, 124.333313, 55.0, 22.0 ],
					"style" : "",
					"text" : "unpack i"
				}

			}
, 			{
				"box" : 				{
					"id" : "obj-1",
					"maxclass" : "newobj",
					"numinlets" : 1,
					"numoutlets" : 0,
					"patcher" : 					{
						"fileversion" : 1,
						"appversion" : 						{
							"major" : 7,
							"minor" : 3,
							"revision" : 4,
							"architecture" : "x86",
							"modernui" : 1
						}
,
						"rect" : [ 638.0, 79.0, 652.0, 783.0 ],
						"bglocked" : 0,
						"openinpresentation" : 0,
						"default_fontsize" : 12.0,
						"default_fontface" : 0,
						"default_fontname" : "Arial",
						"gridonopen" : 1,
						"gridsize" : [ 15.0, 15.0 ],
						"gridsnaponopen" : 1,
						"objectsnaponopen" : 1,
						"statusbarvisible" : 2,
						"toolbarvisible" : 1,
						"lefttoolbarpinned" : 0,
						"toptoolbarpinned" : 0,
						"righttoolbarpinned" : 0,
						"bottomtoolbarpinned" : 0,
						"toolbars_unpinned_last_save" : 0,
						"tallnewobj" : 0,
						"boxanimatetime" : 200,
						"enablehscroll" : 1,
						"enablevscroll" : 1,
						"devicewidth" : 0.0,
						"description" : "",
						"digest" : "",
						"tags" : "",
						"style" : "",
						"subpatcher_template" : "",
						"boxes" : [ 							{
								"box" : 								{
									"id" : "obj-72",
									"maxclass" : "button",
									"numinlets" : 1,
									"numoutlets" : 1,
									"outlettype" : [ "bang" ],
									"patching_rect" : [ 174.098389, 101.0, 24.0, 24.0 ],
									"style" : ""
								}

							}
, 							{
								"box" : 								{
									"id" : "obj-71",
									"linecount" : 7,
									"maxclass" : "comment",
									"numinlets" : 1,
									"numoutlets" : 0,
									"patching_rect" : [ 224.173462, 20.0, 332.0, 100.0 ],
									"style" : "",
									"text" : "TO DO:\n1. Change transition time - change the property of the number box to have time we want\n2. Set number of speakers in the random object\n3. Choose type of fade to use\n4. If we change or add sounds, change the number on the counter"
								}

							}
, 							{
								"box" : 								{
									"id" : "obj-66",
									"maxclass" : "number",
									"numinlets" : 1,
									"numoutlets" : 2,
									"outlettype" : [ "", "bang" ],
									"parameter_enable" : 0,
									"patching_rect" : [ 365.905334, 1008.5, 50.0, 22.0 ],
									"style" : ""
								}

							}
, 							{
								"box" : 								{
									"id" : "obj-67",
									"maxclass" : "newobj",
									"numinlets" : 2,
									"numoutlets" : 1,
									"outlettype" : [ "int" ],
									"patching_rect" : [ 365.905334, 970.5, 29.5, 22.0 ],
									"style" : "",
									"text" : "+ 1"
								}

							}
, 							{
								"box" : 								{
									"id" : "obj-68",
									"maxclass" : "message",
									"numinlets" : 2,
									"numoutlets" : 1,
									"outlettype" : [ "" ],
									"patching_rect" : [ 365.905334, 1042.5, 43.0, 22.0 ],
									"style" : "",
									"text" : "set $1"
								}

							}
, 							{
								"box" : 								{
									"id" : "obj-69",
									"maxclass" : "button",
									"numinlets" : 1,
									"numoutlets" : 1,
									"outlettype" : [ "bang" ],
									"patching_rect" : [ 365.905334, 888.5, 30.0, 30.0 ],
									"style" : ""
								}

							}
, 							{
								"box" : 								{
									"id" : "obj-70",
									"maxclass" : "newobj",
									"numinlets" : 2,
									"numoutlets" : 1,
									"outlettype" : [ "int" ],
									"patching_rect" : [ 365.905334, 931.0, 61.0, 22.0 ],
									"style" : "",
									"text" : "random 2"
								}

							}
, 							{
								"box" : 								{
									"id" : "obj-65",
									"maxclass" : "number",
									"numinlets" : 1,
									"numoutlets" : 2,
									"outlettype" : [ "", "bang" ],
									"parameter_enable" : 0,
									"patching_rect" : [ 62.731812, 1008.5, 50.0, 22.0 ],
									"style" : ""
								}

							}
, 							{
								"box" : 								{
									"id" : "obj-57",
									"maxclass" : "newobj",
									"numinlets" : 2,
									"numoutlets" : 1,
									"outlettype" : [ "int" ],
									"patching_rect" : [ 62.731812, 970.5, 29.5, 22.0 ],
									"style" : "",
									"text" : "+ 1"
								}

							}
, 							{
								"box" : 								{
									"id" : "obj-50",
									"maxclass" : "message",
									"numinlets" : 2,
									"numoutlets" : 1,
									"outlettype" : [ "" ],
									"patching_rect" : [ 62.731812, 1042.5, 43.0, 22.0 ],
									"style" : "",
									"text" : "set $1"
								}

							}
, 							{
								"box" : 								{
									"id" : "obj-47",
									"maxclass" : "button",
									"numinlets" : 1,
									"numoutlets" : 1,
									"outlettype" : [ "bang" ],
									"patching_rect" : [ 62.731812, 888.5, 30.0, 30.0 ],
									"style" : ""
								}

							}
, 							{
								"box" : 								{
									"id" : "obj-46",
									"maxclass" : "newobj",
									"numinlets" : 2,
									"numoutlets" : 1,
									"outlettype" : [ "int" ],
									"patching_rect" : [ 62.731812, 931.0, 61.0, 22.0 ],
									"style" : "",
									"text" : "random 2"
								}

							}
, 							{
								"box" : 								{
									"allowdrag" : 0,
									"id" : "obj-44",
									"items" : [ "Equal", "Power", "Fade", "[default]", ",", "Linear", "Fade", ",", "Square", "Root", "Fade" ],
									"maxclass" : "umenu",
									"numinlets" : 1,
									"numoutlets" : 3,
									"outlettype" : [ "int", "", "" ],
									"parameter_enable" : 0,
									"patching_rect" : [ 311.405334, 814.0, 159.0, 22.0 ],
									"style" : ""
								}

							}
, 							{
								"box" : 								{
									"fontname" : "Arial",
									"fontsize" : 12.0,
									"id" : "obj-45",
									"maxclass" : "message",
									"numinlets" : 2,
									"numoutlets" : 1,
									"outlettype" : [ "" ],
									"patching_rect" : [ 311.405334, 839.0, 58.0, 22.0 ],
									"style" : "",
									"text" : "shape $1"
								}

							}
, 							{
								"box" : 								{
									"bgcolor" : [ 0.221674, 0.25681, 0.29304, 1.0 ],
									"id" : "obj-36",
									"maxclass" : "newobj",
									"numinlets" : 2,
									"numoutlets" : 2,
									"outlettype" : [ "bang", "" ],
									"patching_rect" : [ 365.905334, 516.5, 36.0, 22.0 ],
									"style" : "",
									"text" : "sel 1"
								}

							}
, 							{
								"box" : 								{
									"bgcolor" : [ 0.221674, 0.25681, 0.29304, 1.0 ],
									"id" : "obj-37",
									"maxclass" : "newobj",
									"numinlets" : 5,
									"numoutlets" : 4,
									"outlettype" : [ "int", "", "", "int" ],
									"patching_rect" : [ 365.905334, 550.5, 71.0, 22.0 ],
									"style" : "",
									"text" : "counter 1 3"
								}

							}
, 							{
								"box" : 								{
									"bgcolor" : [ 0.221674, 0.25681, 0.29304, 1.0 ],
									"id" : "obj-24",
									"maxclass" : "newobj",
									"numinlets" : 2,
									"numoutlets" : 2,
									"outlettype" : [ "bang", "" ],
									"patching_rect" : [ 62.731812, 516.5, 36.0, 22.0 ],
									"style" : "",
									"text" : "sel 1"
								}

							}
, 							{
								"box" : 								{
									"bgcolor" : [ 0.221674, 0.25681, 0.29304, 1.0 ],
									"id" : "obj-38",
									"maxclass" : "newobj",
									"numinlets" : 5,
									"numoutlets" : 4,
									"outlettype" : [ "int", "", "", "int" ],
									"patching_rect" : [ 62.731812, 550.5, 71.0, 22.0 ],
									"style" : "",
									"text" : "counter 1 4"
								}

							}
, 							{
								"box" : 								{
									"bgcolor" : [ 0.221674, 0.25681, 0.29304, 1.0 ],
									"id" : "obj-19",
									"maxclass" : "number",
									"numinlets" : 1,
									"numoutlets" : 2,
									"outlettype" : [ "", "bang" ],
									"parameter_enable" : 0,
									"patching_rect" : [ 62.731812, 585.5, 50.0, 22.0 ],
									"style" : ""
								}

							}
, 							{
								"box" : 								{
									"bgcolor" : [ 0.221674, 0.25681, 0.29304, 1.0 ],
									"id" : "obj-17",
									"maxclass" : "number",
									"numinlets" : 1,
									"numoutlets" : 2,
									"outlettype" : [ "", "bang" ],
									"parameter_enable" : 0,
									"patching_rect" : [ 365.905334, 585.5, 50.0, 22.0 ],
									"style" : ""
								}

							}
, 							{
								"box" : 								{
									"bgcolor" : [ 0.14, 0.14, 0.14, 1.0 ],
									"clipheight" : 22.0,
									"data" : 									{
										"clips" : [ 											{
												"filename" : "/Users/reneeesses/Documents/Cornell Tech/Artfoo/max/sound_image_kate/Sounds/thunder/01-mellow_thunder.aif",
												"filekind" : "audiofile",
												"loop" : 0,
												"content_state" : 												{
													"pitchshift" : [ 1.0 ],
													"slurtime" : [ 0.0 ],
													"followglobaltempo" : [ 0 ],
													"originallength" : [ 0.0, "ticks" ],
													"pitchcorrection" : [ 0 ],
													"originaltempo" : [ 120.0 ],
													"mode" : [ "basic" ],
													"formantcorrection" : [ 0 ],
													"basictuning" : [ 440 ],
													"quality" : [ "basic" ],
													"play" : [ 0 ],
													"originallengthms" : [ 0.0 ],
													"speed" : [ 1.0 ],
													"formant" : [ 1.0 ],
													"timestretch" : [ 0 ]
												}

											}
, 											{
												"filename" : "/Users/reneeesses/Documents/Cornell Tech/Artfoo/max/sound_image_kate/Sounds/thunder/03-thundering.aif",
												"filekind" : "audiofile",
												"loop" : 0,
												"content_state" : 												{
													"pitchshift" : [ 1.0 ],
													"slurtime" : [ 0.0 ],
													"followglobaltempo" : [ 0 ],
													"originallength" : [ 0.0, "ticks" ],
													"pitchcorrection" : [ 0 ],
													"originaltempo" : [ 120.0 ],
													"mode" : [ "basic" ],
													"formantcorrection" : [ 0 ],
													"basictuning" : [ 440 ],
													"quality" : [ "basic" ],
													"play" : [ 0 ],
													"originallengthms" : [ 0.0 ],
													"speed" : [ 1.0 ],
													"formant" : [ 1.0 ],
													"timestretch" : [ 0 ]
												}

											}
, 											{
												"filename" : "/Users/reneeesses/Documents/Cornell Tech/Artfoo/max/sound_image_kate/Sounds/thunder/05.5-thunder_old.wav",
												"filekind" : "audiofile",
												"loop" : 0,
												"content_state" : 												{
													"pitchshift" : [ 1.0 ],
													"slurtime" : [ 0.0 ],
													"followglobaltempo" : [ 0 ],
													"originallength" : [ 0.0, "ticks" ],
													"pitchcorrection" : [ 0 ],
													"originaltempo" : [ 120.0 ],
													"mode" : [ "basic" ],
													"formantcorrection" : [ 0 ],
													"basictuning" : [ 440 ],
													"quality" : [ "basic" ],
													"play" : [ 0 ],
													"originallengthms" : [ 0.0 ],
													"speed" : [ 1.0 ],
													"formant" : [ 1.0 ],
													"timestretch" : [ 0 ]
												}

											}
, 											{
												"filename" : "/Users/reneeesses/Documents/Cornell Tech/Artfoo/max/sound_image_kate/Sounds/thunder/08-quick_thunder.aif",
												"filekind" : "audiofile",
												"loop" : 0,
												"content_state" : 												{
													"pitchshift" : [ 1.0 ],
													"slurtime" : [ 0.0 ],
													"followglobaltempo" : [ 0 ],
													"originallength" : [ 0.0, "ticks" ],
													"pitchcorrection" : [ 0 ],
													"originaltempo" : [ 120.0 ],
													"mode" : [ "basic" ],
													"formantcorrection" : [ 0 ],
													"basictuning" : [ 440 ],
													"quality" : [ "basic" ],
													"play" : [ 0 ],
													"originallengthms" : [ 0.0 ],
													"speed" : [ 1.0 ],
													"formant" : [ 1.0 ],
													"timestretch" : [ 0 ]
												}

											}
 ]
									}
,
									"id" : "obj-10",
									"maxclass" : "playlist~",
									"numinlets" : 1,
									"numoutlets" : 5,
									"outlettype" : [ "signal", "signal", "signal", "", "dictionary" ],
									"patching_rect" : [ 62.731812, 644.5, 150.0, 92.0 ],
									"style" : ""
								}

							}
, 							{
								"box" : 								{
									"bgcolor" : [ 0.14, 0.14, 0.14, 1.0 ],
									"clipheight" : 29.666666,
									"data" : 									{
										"clips" : [ 											{
												"filename" : "/Users/reneeesses/Documents/Cornell Tech/Artfoo/max/sound_image_kate/Sounds/thunder/02-cracking_thunder.aif",
												"filekind" : "audiofile",
												"loop" : 0,
												"content_state" : 												{
													"pitchshift" : [ 1.0 ],
													"slurtime" : [ 0.0 ],
													"followglobaltempo" : [ 0 ],
													"originallength" : [ 0.0, "ticks" ],
													"pitchcorrection" : [ 0 ],
													"originaltempo" : [ 120.0 ],
													"mode" : [ "basic" ],
													"formantcorrection" : [ 0 ],
													"basictuning" : [ 440 ],
													"quality" : [ "basic" ],
													"play" : [ 0 ],
													"originallengthms" : [ 0.0 ],
													"speed" : [ 1.0 ],
													"formant" : [ 1.0 ],
													"timestretch" : [ 0 ]
												}

											}
, 											{
												"filename" : "/Users/reneeesses/Documents/Cornell Tech/Artfoo/max/sound_image_kate/Sounds/thunder/04-lightning_thunder.aif",
												"filekind" : "audiofile",
												"loop" : 0,
												"content_state" : 												{
													"pitchshift" : [ 1.0 ],
													"slurtime" : [ 0.0 ],
													"followglobaltempo" : [ 0 ],
													"originallength" : [ 0.0, "ticks" ],
													"pitchcorrection" : [ 0 ],
													"originaltempo" : [ 120.0 ],
													"mode" : [ "basic" ],
													"formantcorrection" : [ 0 ],
													"basictuning" : [ 440 ],
													"quality" : [ "basic" ],
													"play" : [ 0 ],
													"originallengthms" : [ 0.0 ],
													"speed" : [ 1.0 ],
													"formant" : [ 1.0 ],
													"timestretch" : [ 0 ]
												}

											}
, 											{
												"filename" : "/Users/reneeesses/Documents/Cornell Tech/Artfoo/max/sound_image_kate/Sounds/thunder/06-lightning.aif",
												"filekind" : "audiofile",
												"loop" : 0,
												"content_state" : 												{
													"pitchshift" : [ 1.0 ],
													"slurtime" : [ 0.0 ],
													"followglobaltempo" : [ 0 ],
													"originallength" : [ 0.0, "ticks" ],
													"pitchcorrection" : [ 0 ],
													"originaltempo" : [ 120.0 ],
													"mode" : [ "basic" ],
													"formantcorrection" : [ 0 ],
													"basictuning" : [ 440 ],
													"quality" : [ "basic" ],
													"play" : [ 0 ],
													"originallengthms" : [ 0.0 ],
													"speed" : [ 1.0 ],
													"formant" : [ 1.0 ],
													"timestretch" : [ 0 ]
												}

											}
 ]
									}
,
									"id" : "obj-8",
									"maxclass" : "playlist~",
									"numinlets" : 1,
									"numoutlets" : 5,
									"outlettype" : [ "signal", "signal", "signal", "", "dictionary" ],
									"patching_rect" : [ 365.905334, 623.5, 150.0, 92.0 ],
									"style" : ""
								}

							}
, 							{
								"box" : 								{
									"bgcolor" : [ 0.133674, 0.354866, 0.236742, 1.0 ],
									"id" : "obj-13",
									"maxclass" : "number",
									"numinlets" : 1,
									"numoutlets" : 2,
									"outlettype" : [ "", "bang" ],
									"parameter_enable" : 0,
									"patching_rect" : [ 365.173462, 264.5, 50.0, 22.0 ],
									"style" : ""
								}

							}
, 							{
								"box" : 								{
									"bgcolor" : [ 0.133674, 0.354866, 0.236742, 1.0 ],
									"id" : "obj-9",
									"maxclass" : "newobj",
									"numinlets" : 1,
									"numoutlets" : 1,
									"outlettype" : [ "" ],
									"patching_rect" : [ 62.731812, 405.5, 100.0, 22.0 ],
									"style" : "",
									"text" : "if $i1 == 0 then 1"
								}

							}
, 							{
								"box" : 								{
									"bgcolor" : [ 0.133674, 0.354866, 0.236742, 1.0 ],
									"id" : "obj-6",
									"maxclass" : "newobj",
									"numinlets" : 1,
									"numoutlets" : 1,
									"outlettype" : [ "" ],
									"patching_rect" : [ 179.731812, 405.5, 100.0, 22.0 ],
									"style" : "",
									"text" : "if $i1 == 1 then 0"
								}

							}
, 							{
								"box" : 								{
									"bgcolor" : [ 0.133674, 0.354866, 0.236742, 1.0 ],
									"id" : "obj-3",
									"maxclass" : "newobj",
									"numinlets" : 1,
									"numoutlets" : 1,
									"outlettype" : [ "" ],
									"patching_rect" : [ 436.173462, 405.5, 100.0, 22.0 ],
									"style" : "",
									"text" : "if $i1 == 0 then 0"
								}

							}
, 							{
								"box" : 								{
									"bgcolor" : [ 0.133674, 0.354866, 0.236742, 1.0 ],
									"id" : "obj-1",
									"maxclass" : "newobj",
									"numinlets" : 1,
									"numoutlets" : 1,
									"outlettype" : [ "" ],
									"patching_rect" : [ 306.398499, 405.5, 100.0, 22.0 ],
									"style" : "",
									"text" : "if $i1 == 1 then 1"
								}

							}
, 							{
								"box" : 								{
									"bgcolor" : [ 0.133674, 0.354866, 0.236742, 1.0 ],
									"id" : "obj-39",
									"maxclass" : "number",
									"numinlets" : 1,
									"numoutlets" : 2,
									"outlettype" : [ "", "bang" ],
									"parameter_enable" : 0,
									"patching_rect" : [ 447.666626, 264.5, 50.0, 22.0 ],
									"style" : ""
								}

							}
, 							{
								"box" : 								{
									"bgcolor" : [ 0.133674, 0.354866, 0.236742, 1.0 ],
									"id" : "obj-23",
									"maxclass" : "newobj",
									"numinlets" : 1,
									"numoutlets" : 1,
									"outlettype" : [ "" ],
									"patching_rect" : [ 504.557617, 182.5, 100.0, 22.0 ],
									"style" : "",
									"text" : "if $i1 > 99 then 1"
								}

							}
, 							{
								"box" : 								{
									"bgcolor" : [ 0.133674, 0.354866, 0.236742, 1.0 ],
									"id" : "obj-40",
									"maxclass" : "newobj",
									"numinlets" : 1,
									"numoutlets" : 1,
									"outlettype" : [ "" ],
									"patching_rect" : [ 388.173462, 182.5, 93.0, 22.0 ],
									"style" : "",
									"text" : "if $i1 < 1 then 0"
								}

							}
, 							{
								"box" : 								{
									"bgcolor" : [ 0.240323, 0.247547, 0.573641, 1.0 ],
									"id" : "obj-18",
									"maxclass" : "toggle",
									"numinlets" : 1,
									"numoutlets" : 1,
									"outlettype" : [ "int" ],
									"parameter_enable" : 0,
									"patching_rect" : [ 88.333313, 81.0, 24.0, 24.0 ],
									"style" : "",
									"uncheckedcolor" : [ 0.163647, 0.174699, 0.17409, 1.0 ]
								}

							}
, 							{
								"box" : 								{
									"bgcolor" : [ 0.337303, 0.352808, 0.54972, 1.0 ],
									"id" : "obj-11",
									"maxclass" : "slider",
									"mult" : 100.0,
									"numinlets" : 1,
									"numoutlets" : 1,
									"orientation" : 1,
									"outlettype" : [ "" ],
									"parameter_enable" : 0,
									"patching_rect" : [ 88.333313, 167.764709, 42.0, 18.0 ],
									"size" : 2.0,
									"style" : "sliderCyan"
								}

							}
, 							{
								"box" : 								{
									"comment" : "",
									"id" : "obj-2",
									"index" : 1,
									"maxclass" : "inlet",
									"numinlets" : 0,
									"numoutlets" : 1,
									"outlettype" : [ "" ],
									"patching_rect" : [ 88.333313, 20.0, 30.0, 30.0 ],
									"style" : "",
									"tricolor" : [ 0.702269, 0.811747, 0.303388, 1.0 ]
								}

							}
, 							{
								"box" : 								{
									"bgcolor" : [ 0.337303, 0.352808, 0.54972, 1.0 ],
									"id" : "obj-58",
									"maxclass" : "comment",
									"numinlets" : 1,
									"numoutlets" : 0,
									"patching_rect" : [ 174.098389, 144.882355, 90.0, 20.0 ],
									"style" : "",
									"text" : "Transition Time"
								}

							}
, 							{
								"box" : 								{
									"bgcolor" : [ 0.337303, 0.352808, 0.54972, 1.0 ],
									"id" : "obj-59",
									"maxclass" : "comment",
									"numinlets" : 1,
									"numoutlets" : 0,
									"patching_rect" : [ 235.782593, 167.764709, 26.0, 20.0 ],
									"style" : "",
									"text" : "ms"
								}

							}
, 							{
								"box" : 								{
									"bgcolor" : [ 0.337303, 0.352808, 0.54972, 1.0 ],
									"id" : "obj-60",
									"maxclass" : "number",
									"minimum" : 750,
									"numinlets" : 1,
									"numoutlets" : 2,
									"outlettype" : [ "", "bang" ],
									"parameter_enable" : 0,
									"patching_rect" : [ 174.098389, 167.764709, 53.0, 22.0 ],
									"style" : "numberGold-1",
									"triscale" : 0.9
								}

							}
, 							{
								"box" : 								{
									"bgcolor" : [ 0.337303, 0.352808, 0.54972, 1.0 ],
									"cantchange" : 1,
									"format" : 6,
									"id" : "obj-61",
									"maxclass" : "flonum",
									"maximum" : 1.0,
									"minimum" : 0.0,
									"numinlets" : 1,
									"numoutlets" : 2,
									"outlettype" : [ "", "bang" ],
									"parameter_enable" : 0,
									"patching_rect" : [ 88.333313, 333.941162, 48.0, 22.0 ],
									"style" : "",
									"triscale" : 0.9
								}

							}
, 							{
								"box" : 								{
									"bgcolor" : [ 0.337303, 0.352808, 0.54972, 1.0 ],
									"id" : "obj-41",
									"maxclass" : "newobj",
									"numinlets" : 2,
									"numoutlets" : 1,
									"outlettype" : [ "" ],
									"patching_rect" : [ 88.333313, 198.647034, 57.0, 22.0 ],
									"style" : "",
									"text" : "pack"
								}

							}
, 							{
								"box" : 								{
									"bgcolor" : [ 0.337303, 0.352808, 0.54972, 1.0 ],
									"id" : "obj-62",
									"maxclass" : "newobj",
									"numinlets" : 3,
									"numoutlets" : 2,
									"outlettype" : [ "", "" ],
									"patching_rect" : [ 88.333313, 232.470581, 54.0, 22.0 ],
									"style" : "",
									"text" : "line 0 50"
								}

							}
, 							{
								"box" : 								{
									"bgcolor" : [ 0.337303, 0.352808, 0.54972, 1.0 ],
									"id" : "obj-63",
									"maxclass" : "newobj",
									"numinlets" : 2,
									"numoutlets" : 1,
									"outlettype" : [ "float" ],
									"patching_rect" : [ 88.333313, 298.647095, 41.0, 22.0 ],
									"style" : "",
									"text" : "* 0.01"
								}

							}
, 							{
								"box" : 								{
									"bgcolor" : [ 0.337303, 0.352808, 0.54972, 1.0 ],
									"id" : "obj-64",
									"maxclass" : "slider",
									"numinlets" : 1,
									"numoutlets" : 1,
									"orientation" : 1,
									"outlettype" : [ "" ],
									"parameter_enable" : 0,
									"patching_rect" : [ 88.333313, 267.764709, 159.124054, 20.0 ],
									"size" : 101.0,
									"style" : "sliderCyan"
								}

							}
, 							{
								"box" : 								{
									"bgcolor" : [ 0.989256, 0.417462, 0.031845, 1.0 ],
									"id" : "obj-51",
									"maxclass" : "toggle",
									"numinlets" : 1,
									"numoutlets" : 1,
									"outlettype" : [ "int" ],
									"parameter_enable" : 0,
									"patching_rect" : [ 365.905334, 480.5, 24.0, 24.0 ],
									"style" : "",
									"uncheckedcolor" : [ 0.572549, 0.27451, 0.027451, 1.0 ]
								}

							}
, 							{
								"box" : 								{
									"bgcolor" : [ 0.113725, 0.580392, 0.737255, 1.0 ],
									"id" : "obj-42",
									"maxclass" : "newobj",
									"numinlets" : 5,
									"numoutlets" : 3,
									"outlettype" : [ "signal", "signal", "" ],
									"patching_rect" : [ 211.0, 831.5, 63.0, 22.0 ],
									"style" : "",
									"text" : "j.xfade~ 2"
								}

							}
, 							{
								"box" : 								{
									"bgcolor" : [ 0.989256, 0.417462, 0.031845, 1.0 ],
									"id" : "obj-43",
									"maxclass" : "toggle",
									"numinlets" : 1,
									"numoutlets" : 1,
									"outlettype" : [ "int" ],
									"parameter_enable" : 0,
									"patching_rect" : [ 62.731812, 480.5, 24.0, 24.0 ],
									"style" : "",
									"uncheckedcolor" : [ 0.572549, 0.27451, 0.027451, 1.0 ]
								}

							}
, 							{
								"box" : 								{
									"fontname" : "Arial",
									"fontsize" : 12.0,
									"id" : "obj-25",
									"maxclass" : "newobj",
									"numinlets" : 2,
									"numoutlets" : 0,
									"patching_rect" : [ 211.0, 1041.5, 37.0, 22.0 ],
									"style" : "",
									"text" : "dac~"
								}

							}
 ],
						"lines" : [ 							{
								"patchline" : 								{
									"destination" : [ "obj-51", 0 ],
									"midpoints" : [ 315.898499, 467.0, 375.405334, 467.0 ],
									"source" : [ "obj-1", 0 ]
								}

							}
, 							{
								"patchline" : 								{
									"destination" : [ "obj-42", 0 ],
									"midpoints" : [ 104.981812, 805.0, 220.5, 805.0 ],
									"source" : [ "obj-10", 1 ]
								}

							}
, 							{
								"patchline" : 								{
									"destination" : [ "obj-42", 0 ],
									"midpoints" : [ 72.231812, 813.0, 220.5, 813.0 ],
									"source" : [ "obj-10", 0 ]
								}

							}
, 							{
								"patchline" : 								{
									"destination" : [ "obj-41", 0 ],
									"midpoints" : [ 97.833313, 188.0, 97.833313, 188.0 ],
									"source" : [ "obj-11", 0 ]
								}

							}
, 							{
								"patchline" : 								{
									"destination" : [ "obj-1", 0 ],
									"midpoints" : [ 374.673462, 392.0, 315.898499, 392.0 ],
									"order" : 0,
									"source" : [ "obj-13", 0 ]
								}

							}
, 							{
								"patchline" : 								{
									"destination" : [ "obj-9", 0 ],
									"midpoints" : [ 374.673462, 392.0, 72.231812, 392.0 ],
									"order" : 1,
									"source" : [ "obj-13", 0 ]
								}

							}
, 							{
								"patchline" : 								{
									"destination" : [ "obj-8", 0 ],
									"midpoints" : [ 375.405334, 608.0, 375.405334, 608.0 ],
									"source" : [ "obj-17", 0 ]
								}

							}
, 							{
								"patchline" : 								{
									"destination" : [ "obj-11", 0 ],
									"midpoints" : [ 97.833313, 131.0, 97.0, 131.0, 97.0, 164.0, 97.833313, 164.0 ],
									"order" : 2,
									"source" : [ "obj-18", 0 ]
								}

							}
, 							{
								"patchline" : 								{
									"destination" : [ "obj-13", 0 ],
									"midpoints" : [ 97.833313, 131.0, 374.673462, 131.0 ],
									"order" : 0,
									"source" : [ "obj-18", 0 ]
								}

							}
, 							{
								"patchline" : 								{
									"destination" : [ "obj-72", 0 ],
									"order" : 1,
									"source" : [ "obj-18", 0 ]
								}

							}
, 							{
								"patchline" : 								{
									"destination" : [ "obj-10", 0 ],
									"midpoints" : [ 72.231812, 608.0, 72.231812, 608.0 ],
									"source" : [ "obj-19", 0 ]
								}

							}
, 							{
								"patchline" : 								{
									"destination" : [ "obj-18", 0 ],
									"midpoints" : [ 97.833313, 53.0, 97.833313, 53.0 ],
									"source" : [ "obj-2", 0 ]
								}

							}
, 							{
								"patchline" : 								{
									"destination" : [ "obj-39", 0 ],
									"midpoints" : [ 514.057617, 251.0, 457.166626, 251.0 ],
									"source" : [ "obj-23", 0 ]
								}

							}
, 							{
								"patchline" : 								{
									"destination" : [ "obj-38", 0 ],
									"midpoints" : [ 72.231812, 539.0, 72.231812, 539.0 ],
									"order" : 1,
									"source" : [ "obj-24", 0 ]
								}

							}
, 							{
								"patchline" : 								{
									"destination" : [ "obj-47", 0 ],
									"order" : 0,
									"source" : [ "obj-24", 0 ]
								}

							}
, 							{
								"patchline" : 								{
									"destination" : [ "obj-51", 0 ],
									"midpoints" : [ 445.673462, 467.0, 375.405334, 467.0 ],
									"source" : [ "obj-3", 0 ]
								}

							}
, 							{
								"patchline" : 								{
									"destination" : [ "obj-37", 0 ],
									"midpoints" : [ 375.405334, 539.0, 375.405334, 539.0 ],
									"order" : 1,
									"source" : [ "obj-36", 0 ]
								}

							}
, 							{
								"patchline" : 								{
									"destination" : [ "obj-69", 0 ],
									"order" : 0,
									"source" : [ "obj-36", 0 ]
								}

							}
, 							{
								"patchline" : 								{
									"destination" : [ "obj-17", 0 ],
									"midpoints" : [ 375.405334, 575.0, 375.405334, 575.0 ],
									"source" : [ "obj-37", 0 ]
								}

							}
, 							{
								"patchline" : 								{
									"destination" : [ "obj-19", 0 ],
									"midpoints" : [ 72.231812, 575.0, 72.231812, 575.0 ],
									"source" : [ "obj-38", 0 ]
								}

							}
, 							{
								"patchline" : 								{
									"destination" : [ "obj-3", 0 ],
									"midpoints" : [ 457.166626, 392.0, 445.673462, 392.0 ],
									"order" : 0,
									"source" : [ "obj-39", 0 ]
								}

							}
, 							{
								"patchline" : 								{
									"destination" : [ "obj-6", 0 ],
									"midpoints" : [ 457.166626, 392.0, 189.231812, 392.0 ],
									"order" : 1,
									"source" : [ "obj-39", 0 ]
								}

							}
, 							{
								"patchline" : 								{
									"destination" : [ "obj-39", 0 ],
									"midpoints" : [ 397.673462, 251.0, 457.166626, 251.0 ],
									"source" : [ "obj-40", 0 ]
								}

							}
, 							{
								"patchline" : 								{
									"destination" : [ "obj-62", 0 ],
									"midpoints" : [ 97.833313, 221.0, 97.833313, 221.0 ],
									"source" : [ "obj-41", 0 ]
								}

							}
, 							{
								"patchline" : 								{
									"destination" : [ "obj-25", 1 ],
									"source" : [ "obj-42", 1 ]
								}

							}
, 							{
								"patchline" : 								{
									"destination" : [ "obj-25", 0 ],
									"source" : [ "obj-42", 0 ]
								}

							}
, 							{
								"patchline" : 								{
									"destination" : [ "obj-24", 0 ],
									"midpoints" : [ 72.231812, 506.0, 72.231812, 506.0 ],
									"source" : [ "obj-43", 0 ]
								}

							}
, 							{
								"patchline" : 								{
									"destination" : [ "obj-45", 0 ],
									"source" : [ "obj-44", 0 ]
								}

							}
, 							{
								"patchline" : 								{
									"destination" : [ "obj-42", 0 ],
									"source" : [ "obj-45", 0 ]
								}

							}
, 							{
								"patchline" : 								{
									"destination" : [ "obj-57", 0 ],
									"source" : [ "obj-46", 0 ]
								}

							}
, 							{
								"patchline" : 								{
									"destination" : [ "obj-46", 0 ],
									"source" : [ "obj-47", 0 ]
								}

							}
, 							{
								"patchline" : 								{
									"destination" : [ "obj-25", 0 ],
									"source" : [ "obj-50", 0 ]
								}

							}
, 							{
								"patchline" : 								{
									"destination" : [ "obj-36", 0 ],
									"midpoints" : [ 375.405334, 506.0, 375.405334, 506.0 ],
									"source" : [ "obj-51", 0 ]
								}

							}
, 							{
								"patchline" : 								{
									"destination" : [ "obj-65", 0 ],
									"source" : [ "obj-57", 0 ]
								}

							}
, 							{
								"patchline" : 								{
									"destination" : [ "obj-43", 0 ],
									"midpoints" : [ 189.231812, 467.0, 72.231812, 467.0 ],
									"source" : [ "obj-6", 0 ]
								}

							}
, 							{
								"patchline" : 								{
									"destination" : [ "obj-41", 1 ],
									"midpoints" : [ 183.598389, 191.0, 135.833313, 191.0 ],
									"source" : [ "obj-60", 0 ]
								}

							}
, 							{
								"patchline" : 								{
									"destination" : [ "obj-42", 4 ],
									"midpoints" : [ 97.833313, 383.0, 47.0, 383.0, 47.0, 779.0, 264.5, 779.0 ],
									"source" : [ "obj-61", 0 ]
								}

							}
, 							{
								"patchline" : 								{
									"destination" : [ "obj-64", 0 ],
									"midpoints" : [ 97.833313, 257.0, 97.833313, 257.0 ],
									"source" : [ "obj-62", 0 ]
								}

							}
, 							{
								"patchline" : 								{
									"destination" : [ "obj-61", 0 ],
									"midpoints" : [ 97.833313, 323.0, 97.833313, 323.0 ],
									"source" : [ "obj-63", 0 ]
								}

							}
, 							{
								"patchline" : 								{
									"destination" : [ "obj-23", 0 ],
									"midpoints" : [ 97.833313, 290.0, 146.0, 290.0, 146.0, 329.0, 434.0, 329.0, 434.0, 215.0, 491.0, 215.0, 491.0, 176.0, 514.057617, 176.0 ],
									"order" : 0,
									"source" : [ "obj-64", 0 ]
								}

							}
, 							{
								"patchline" : 								{
									"destination" : [ "obj-40", 0 ],
									"midpoints" : [ 97.833313, 290.0, 146.0, 290.0, 146.0, 329.0, 350.0, 329.0, 350.0, 176.0, 397.673462, 176.0 ],
									"order" : 1,
									"source" : [ "obj-64", 0 ]
								}

							}
, 							{
								"patchline" : 								{
									"destination" : [ "obj-63", 0 ],
									"midpoints" : [ 97.833313, 290.0, 97.833313, 290.0 ],
									"order" : 2,
									"source" : [ "obj-64", 0 ]
								}

							}
, 							{
								"patchline" : 								{
									"destination" : [ "obj-50", 0 ],
									"source" : [ "obj-65", 0 ]
								}

							}
, 							{
								"patchline" : 								{
									"destination" : [ "obj-68", 0 ],
									"source" : [ "obj-66", 0 ]
								}

							}
, 							{
								"patchline" : 								{
									"destination" : [ "obj-66", 0 ],
									"source" : [ "obj-67", 0 ]
								}

							}
, 							{
								"patchline" : 								{
									"destination" : [ "obj-25", 1 ],
									"source" : [ "obj-68", 0 ]
								}

							}
, 							{
								"patchline" : 								{
									"destination" : [ "obj-70", 0 ],
									"source" : [ "obj-69", 0 ]
								}

							}
, 							{
								"patchline" : 								{
									"destination" : [ "obj-67", 0 ],
									"source" : [ "obj-70", 0 ]
								}

							}
, 							{
								"patchline" : 								{
									"destination" : [ "obj-60", 0 ],
									"source" : [ "obj-72", 0 ]
								}

							}
, 							{
								"patchline" : 								{
									"destination" : [ "obj-42", 3 ],
									"source" : [ "obj-8", 1 ]
								}

							}
, 							{
								"patchline" : 								{
									"destination" : [ "obj-42", 3 ],
									"source" : [ "obj-8", 0 ]
								}

							}
, 							{
								"patchline" : 								{
									"destination" : [ "obj-43", 0 ],
									"midpoints" : [ 72.231812, 428.0, 72.231812, 428.0 ],
									"source" : [ "obj-9", 0 ]
								}

							}
 ],
						"styles" : [ 							{
								"name" : "AudioStatus_Menu",
								"default" : 								{
									"bgfillcolor" : 									{
										"type" : "color",
										"color" : [ 0.294118, 0.313726, 0.337255, 1 ],
										"color1" : [ 0.454902, 0.462745, 0.482353, 0.0 ],
										"color2" : [ 0.290196, 0.309804, 0.301961, 1.0 ],
										"angle" : 270.0,
										"proportion" : 0.39,
										"autogradient" : 0
									}

								}
,
								"parentstyle" : "",
								"multi" : 0
							}
, 							{
								"name" : "buttonBlue",
								"default" : 								{
									"bgcolor" : [ 0.317647, 0.654902, 0.976471, 1.0 ]
								}
,
								"parentstyle" : "",
								"multi" : 0
							}
, 							{
								"name" : "buttonPurple",
								"default" : 								{
									"bgcolor" : [ 0.372549, 0.196078, 0.486275, 1.0 ]
								}
,
								"parentstyle" : "",
								"multi" : 0
							}
, 							{
								"name" : "newobjBlue-1",
								"default" : 								{
									"accentcolor" : [ 0.317647, 0.654902, 0.976471, 1.0 ]
								}
,
								"parentstyle" : "",
								"multi" : 0
							}
, 							{
								"name" : "newobjBronze",
								"default" : 								{
									"accentcolor" : [ 0.654902, 0.572549, 0.376471, 1.0 ]
								}
,
								"parentstyle" : "newobjYellow",
								"multi" : 0
							}
, 							{
								"name" : "newobjCyan-1",
								"default" : 								{
									"accentcolor" : [ 0.029546, 0.773327, 0.821113, 1.0 ]
								}
,
								"parentstyle" : "",
								"multi" : 0
							}
, 							{
								"name" : "newobjGold-1",
								"default" : 								{
									"accentcolor" : [ 0.764706, 0.592157, 0.101961, 1.0 ]
								}
,
								"parentstyle" : "",
								"multi" : 0
							}
, 							{
								"name" : "newobjGreen-1",
								"default" : 								{
									"accentcolor" : [ 0.0, 0.533333, 0.168627, 1.0 ]
								}
,
								"parentstyle" : "",
								"multi" : 0
							}
, 							{
								"name" : "newobjMagenta-1",
								"default" : 								{
									"accentcolor" : [ 0.840663, 0.060168, 0.769195, 1.0 ]
								}
,
								"parentstyle" : "",
								"multi" : 0
							}
, 							{
								"name" : "newobjYellow-1",
								"default" : 								{
									"accentcolor" : [ 0.82517, 0.78181, 0.059545, 1.0 ],
									"fontsize" : [ 12.059008 ]
								}
,
								"parentstyle" : "",
								"multi" : 0
							}
, 							{
								"name" : "numberGold-1",
								"default" : 								{
									"accentcolor" : [ 0.764706, 0.592157, 0.101961, 1.0 ]
								}
,
								"parentstyle" : "",
								"multi" : 0
							}
 ]
					}
,
					"patching_rect" : [ 138.833313, 255.5, 83.0, 22.0 ],
					"saved_object_attributes" : 					{
						"description" : "",
						"digest" : "",
						"globalpatchername" : "",
						"style" : "",
						"tags" : ""
					}
,
					"style" : "",
					"text" : "patcher xfade"
				}

			}
, 			{
				"box" : 				{
					"id" : "obj-14",
					"maxclass" : "newobj",
					"numinlets" : 1,
					"numoutlets" : 0,
					"patching_rect" : [ 200.166687, 124.333313, 34.0, 22.0 ],
					"style" : "",
					"text" : "print"
				}

			}
, 			{
				"box" : 				{
					"fontname" : "Arial",
					"fontsize" : 12.0,
					"format" : 6,
					"id" : "obj-76",
					"maxclass" : "flonum",
					"maximum" : 1.0,
					"minimum" : 0.0,
					"numinlets" : 1,
					"numoutlets" : 2,
					"outlettype" : [ "", "bang" ],
					"parameter_enable" : 0,
					"patching_rect" : [ 138.833313, 185.333313, 50.0, 22.0 ],
					"style" : ""
				}

			}
, 			{
				"box" : 				{
					"fontface" : 0,
					"fontname" : "Arial",
					"fontsize" : 12.0,
					"id" : "obj-75",
					"maxclass" : "newobj",
					"numinlets" : 1,
					"numoutlets" : 1,
					"outlettype" : [ "int" ],
					"patching_rect" : [ 138.833313, 124.333313, 55.0, 22.0 ],
					"style" : "",
					"text" : "unpack i"
				}

			}
, 			{
				"box" : 				{
					"fontface" : 0,
					"fontname" : "Arial",
					"fontsize" : 12.0,
					"id" : "obj-7",
					"maxclass" : "newobj",
					"numinlets" : 5,
					"numoutlets" : 5,
					"outlettype" : [ "", "", "", "", "" ],
					"patching_rect" : [ 138.833313, 55.333328, 281.0, 22.0 ],
					"style" : "",
					"text" : "route /arm_raised /hand_open_closed /stomp /hips"
				}

			}
, 			{
				"box" : 				{
					"fontname" : "Arial",
					"fontsize" : 12.0,
					"id" : "obj-8",
					"maxclass" : "newobj",
					"numinlets" : 1,
					"numoutlets" : 1,
					"outlettype" : [ "" ],
					"patching_rect" : [ 138.833313, 19.333328, 99.0, 22.0 ],
					"style" : "",
					"text" : "udpreceive 7000"
				}

			}
, 			{
				"box" : 				{
					"fontname" : "Arial",
					"fontsize" : 12.0,
					"id" : "obj-10",
					"maxclass" : "newobj",
					"numinlets" : 1,
					"numoutlets" : 0,
					"patching_rect" : [ 510.333252, 169.333328, 138.0, 22.0 ],
					"style" : "",
					"text" : "print unknown-message"
				}

			}
 ],
		"lines" : [ 			{
				"patchline" : 				{
					"destination" : [ "obj-2", 0 ],
					"source" : [ "obj-4", 0 ]
				}

			}
, 			{
				"patchline" : 				{
					"destination" : [ "obj-4", 0 ],
					"midpoints" : [ 278.333313, 162.0, 278.333313, 162.0 ],
					"source" : [ "obj-5", 0 ]
				}

			}
, 			{
				"patchline" : 				{
					"destination" : [ "obj-10", 0 ],
					"midpoints" : [ 410.333313, 78.0, 450.0, 78.0, 450.0, 79.0, 519.833252, 79.0 ],
					"source" : [ "obj-7", 4 ]
				}

			}
, 			{
				"patchline" : 				{
					"destination" : [ "obj-14", 0 ],
					"midpoints" : [ 148.333313, 123.0, 209.666687, 123.0 ],
					"order" : 0,
					"source" : [ "obj-7", 0 ]
				}

			}
, 			{
				"patchline" : 				{
					"destination" : [ "obj-3", 0 ],
					"order" : 0,
					"source" : [ "obj-7", 1 ]
				}

			}
, 			{
				"patchline" : 				{
					"destination" : [ "obj-5", 0 ],
					"order" : 1,
					"source" : [ "obj-7", 1 ]
				}

			}
, 			{
				"patchline" : 				{
					"destination" : [ "obj-75", 0 ],
					"midpoints" : [ 148.333313, 123.0, 148.333313, 123.0 ],
					"order" : 1,
					"source" : [ "obj-7", 0 ]
				}

			}
, 			{
				"patchline" : 				{
					"destination" : [ "obj-76", 0 ],
					"midpoints" : [ 148.333313, 162.0, 148.333313, 162.0 ],
					"source" : [ "obj-75", 0 ]
				}

			}
, 			{
				"patchline" : 				{
					"destination" : [ "obj-1", 0 ],
					"source" : [ "obj-76", 0 ]
				}

			}
, 			{
				"patchline" : 				{
					"destination" : [ "obj-7", 0 ],
					"midpoints" : [ 148.333313, 42.0, 148.333313, 42.0 ],
					"source" : [ "obj-8", 0 ]
				}

			}
 ],
		"dependency_cache" : [ 			{
				"name" : "02-cracking_thunder.aif",
				"bootpath" : "~/Documents/Cornell Tech/Artfoo/max/sound_image_kate/Sounds/thunder",
				"patcherrelativepath" : "../sound_image_kate/Sounds/thunder",
				"type" : "AIFF",
				"implicit" : 1
			}
, 			{
				"name" : "04-lightning_thunder.aif",
				"bootpath" : "~/Documents/Cornell Tech/Artfoo/max/sound_image_kate/Sounds/thunder",
				"patcherrelativepath" : "../sound_image_kate/Sounds/thunder",
				"type" : "AIFF",
				"implicit" : 1
			}
, 			{
				"name" : "06-lightning.aif",
				"bootpath" : "~/Documents/Cornell Tech/Artfoo/max/sound_image_kate/Sounds/thunder",
				"patcherrelativepath" : "../sound_image_kate/Sounds/thunder",
				"type" : "AIFF",
				"implicit" : 1
			}
, 			{
				"name" : "01-mellow_thunder.aif",
				"bootpath" : "~/Documents/Cornell Tech/Artfoo/max/sound_image_kate/Sounds/thunder",
				"patcherrelativepath" : "../sound_image_kate/Sounds/thunder",
				"type" : "AIFF",
				"implicit" : 1
			}
, 			{
				"name" : "03-thundering.aif",
				"bootpath" : "~/Documents/Cornell Tech/Artfoo/max/sound_image_kate/Sounds/thunder",
				"patcherrelativepath" : "../sound_image_kate/Sounds/thunder",
				"type" : "AIFF",
				"implicit" : 1
			}
, 			{
				"name" : "05.5-thunder_old.wav",
				"bootpath" : "~/Documents/Cornell Tech/Artfoo/max/sound_image_kate/Sounds/thunder",
				"patcherrelativepath" : "../sound_image_kate/Sounds/thunder",
				"type" : "WAVE",
				"implicit" : 1
			}
, 			{
				"name" : "08-quick_thunder.aif",
				"bootpath" : "~/Documents/Cornell Tech/Artfoo/max/sound_image_kate/Sounds/thunder",
				"patcherrelativepath" : "../sound_image_kate/Sounds/thunder",
				"type" : "AIFF",
				"implicit" : 1
			}
, 			{
				"name" : "j.xfade~.mxo",
				"type" : "iLaX"
			}
 ],
		"autosave" : 0,
		"styles" : [ 			{
				"name" : "AudioStatus_Menu",
				"default" : 				{
					"bgfillcolor" : 					{
						"type" : "color",
						"color" : [ 0.294118, 0.313726, 0.337255, 1 ],
						"color1" : [ 0.454902, 0.462745, 0.482353, 0.0 ],
						"color2" : [ 0.290196, 0.309804, 0.301961, 1.0 ],
						"angle" : 270.0,
						"proportion" : 0.39,
						"autogradient" : 0
					}

				}
,
				"parentstyle" : "",
				"multi" : 0
			}
, 			{
				"name" : "buttonBlue",
				"default" : 				{
					"bgcolor" : [ 0.317647, 0.654902, 0.976471, 1.0 ]
				}
,
				"parentstyle" : "",
				"multi" : 0
			}
, 			{
				"name" : "buttonPurple",
				"default" : 				{
					"bgcolor" : [ 0.372549, 0.196078, 0.486275, 1.0 ]
				}
,
				"parentstyle" : "",
				"multi" : 0
			}
, 			{
				"name" : "newobjBlue-1",
				"default" : 				{
					"accentcolor" : [ 0.317647, 0.654902, 0.976471, 1.0 ]
				}
,
				"parentstyle" : "",
				"multi" : 0
			}
, 			{
				"name" : "newobjBronze",
				"default" : 				{
					"accentcolor" : [ 0.654902, 0.572549, 0.376471, 1.0 ]
				}
,
				"parentstyle" : "newobjYellow",
				"multi" : 0
			}
, 			{
				"name" : "newobjCyan-1",
				"default" : 				{
					"accentcolor" : [ 0.029546, 0.773327, 0.821113, 1.0 ]
				}
,
				"parentstyle" : "",
				"multi" : 0
			}
, 			{
				"name" : "newobjGold-1",
				"default" : 				{
					"accentcolor" : [ 0.764706, 0.592157, 0.101961, 1.0 ]
				}
,
				"parentstyle" : "",
				"multi" : 0
			}
, 			{
				"name" : "newobjGreen-1",
				"default" : 				{
					"accentcolor" : [ 0.0, 0.533333, 0.168627, 1.0 ]
				}
,
				"parentstyle" : "",
				"multi" : 0
			}
, 			{
				"name" : "newobjMagenta-1",
				"default" : 				{
					"accentcolor" : [ 0.840663, 0.060168, 0.769195, 1.0 ]
				}
,
				"parentstyle" : "",
				"multi" : 0
			}
, 			{
				"name" : "newobjYellow-1",
				"default" : 				{
					"accentcolor" : [ 0.82517, 0.78181, 0.059545, 1.0 ],
					"fontsize" : [ 12.059008 ]
				}
,
				"parentstyle" : "",
				"multi" : 0
			}
, 			{
				"name" : "numberGold-1",
				"default" : 				{
					"accentcolor" : [ 0.764706, 0.592157, 0.101961, 1.0 ]
				}
,
				"parentstyle" : "",
				"multi" : 0
			}
 ]
	}

}
